<svg xmlns="http://www.w3.org/2000/svg" viewBox="0 0 32 32">
  <defs>
    <radialGradient id="glow" cx="50%" cy="50%" r="60%">
      <stop offset="0%" stop-color="#fcd34d" stop-opacity="0.25"/>
      <stop offset="100%" stop-color="#fbbf24" stop-opacity="0"/>
    </radialGradient>
  </defs>

  <!-- Dark rounded background -->
  <rect width="32" height="32" rx="7" fill="#0a0a0a"/>

  <!-- Warm glow behind the d -->
  <rect width="32" height="32" rx="7" fill="url(#glow)"/>

  <!--
    Lowercase italic "d" drawn as a path.
    Built from two shapes: the vertical stem (right side) + the bowl (left curve).
    Coordinates tuned for a 32×32 grid.
  -->
  <path
    d="
      M 21,5
      L 21,27
      L 18.2,27
      L 18.2,25.2
      C 17.1,26.5 15.5,27.3 13.6,27.3
      C 9.8,27.3 7,24.2 7,19.8
      C 7,15.4 9.8,12.3 13.6,12.3
      C 15.4,12.3 16.9,13.0 18.2,14.2
      L 18.2,5
      Z
      M 14.3,24.7
      C 16.6,24.7 18.2,22.9 18.2,19.8
      C 18.2,16.7 16.6,14.9 14.3,14.9
      C 11.9,14.9 10.2,16.8 10.2,19.8
      C 10.2,22.8 11.9,24.7 14.3,24.7
      Z
    "
    fill="#fbbf24"
  />
</svg>
